# xmcd CD database file
#
# Track frame offsets:
#	150
#	11974
#	23558
#	32705
#	45495
#	59628
#	70732
#	83747
#	97352
#	108060
#	118841
#	129532
#	142981
#	155662
#	171165
#	184817
#	198535
#	214045
#	226993
#	239835
#
# Disc length: 3379 seconds
#
# Revision: 0
# Processed by: cddbd v1.5.2PL0 Copyright (c) Steve Scherf et al.
# Submitted via: CDex 1.70beta1
#
DISCID=210d3114
DTITLE=Various Artist - Country Love Volume 2
DYEAR=2004
DGENRE=Country
TTITLE0=Dolly Parton - Making Believe
TTITLE1=Barbara Fairchild - Cheatin' Is
TTITLE2=Faron Young - Hello Walls
TTITLE3=Freddy Fender - Silver Wings
TTITLE4=Jimmie Rodgers - I'm Lonely and Blue
TTITLE5=Billie Jo Spears - Wisdom Of A Fool
TTITLE6=Slim Whitman - Red Sails In The Sunset
TTITLE7=Kenny Rogers - I'm Gonna Sing You A Sad Song Suzie
TTITLE8=Ferlin Husky - Gone
TTITLE9=Bill Monroe - Alabama Waltz
TTITLE10=Kitty Wells - The Things I Might Have Been
TTITLE11=Pee Wee King and His Golden West Cowboys - Whisper Waltz
TTITLE12=Slim Whitman - Tennessee Waltz
TTITLE13=The Allisons - Who Am I This Time
TTITLE14=Wayne Raney - Why Don't You Haul Off and Love Me
TTITLE15=Moon Mullican - I'll Sail My Ship Alone
TTITLE16=Johnny C Carlson - Sometimes She Lets Him Hold Her
TTITLE17=Delmore Brothers - Blues Stay Away From Me
TTITLE18=Bob Wills and His Texas Playboys - Rosetta
TTITLE19=Anne Murray - There Goes My Everything
EXTD=YEAR: 2004
EXTT0=
EXTT1=
EXTT2=
EXTT3=
EXTT4=
EXTT5=
EXTT6=
EXTT7=
EXTT8=
EXTT9=
EXTT10=
EXTT11=
EXTT12=
EXTT13=
EXTT14=
EXTT15=
EXTT16=
EXTT17=
EXTT18=
EXTT19=
PLAYORDER=
